<svg xmlns="http://www.w3.org/2000/svg" viewBox="0 0 100 104" width="100" height="104" role="img" aria-label="Root"><defs><pattern id="tex" width="4" height="4" patternUnits="userSpaceOnUse"><path d="M0 0 L4 4" stroke="#00000010" stroke-width="1"/></pattern></defs><path d="M50 16 C72 10 88 28 86 48 C84 70 72 84 52 88 C30 92 12 72 14 50 C15 30 30 20 50 16 Z" fill="#95d5b2" stroke="#333" stroke-width="3"/><path d="M50 16 C72 10 88 28 86 48 C84 70 72 84 52 88 C30 92 12 72 14 50 C15 30 30 20 50 16 Z" fill="url(#tex)" opacity="0.5"/><path d="M34 88 c-2 8-8 10-12 14 M50 90 c0 8 3 10 3 14 M66 88 c3 8 9 10 12 13" stroke="#40916c" stroke-width="3.4" fill="none" stroke-linecap="round"/><path d="M66 64 c-3-6 5-11 9-7 c5-5 13 1 9 7 c5 3 1 11-4 10 c-2 5-10 5-11 0 c-5 1-7-7-3-10 Z" fill="#fff" stroke="#333" stroke-width="2"/><ellipse cx="38" cy="42" rx="7" ry="8.5" fill="#fff" stroke="#333" stroke-width="2.2"/><circle cx="39" cy="43" r="3.15" fill="#222"/><circle cx="40.4" cy="41" r="1.12" fill="#fff"/><ellipse cx="56" cy="42" rx="7" ry="8.5" fill="#fff" stroke="#333" stroke-width="2.2"/><circle cx="57" cy="43" r="3.15" fill="#222"/><circle cx="58.4" cy="41" r="1.12" fill="#fff"/><path d="M40 62 q8 8 18 1" stroke="#333" stroke-width="2.6" fill="none" stroke-linecap="round"/><path d="M36 78 l14 8 14-8 v14 h-28 Z" fill="#2b2d42" stroke="#333" stroke-width="2"/><path d="M50 84 l-4 4 4 8 4-8 Z" fill="#40916c" stroke="#333" stroke-width="1.4"/><circle cx="43" cy="86" r="1.4" fill="#fff"/><circle cx="57" cy="86" r="1.4" fill="#fff"/></svg>