<svg xmlns="http://www.w3.org/2000/svg" viewBox="0 0 100 104" width="66" height="68" role="img" aria-label="worker"><defs><pattern id="tex" width="4" height="4" patternUnits="userSpaceOnUse"><path d="M0 0 L4 4" stroke="#00000010" stroke-width="1"/></pattern></defs><path d="M46 14 C68 8 90 22 88 46 C87 68 76 88 52 90 C28 91 10 72 12 48 C14 28 26 19 46 14 Z" fill="#d5bdaf" stroke="#333" stroke-width="3"/><path d="M46 14 C68 8 90 22 88 46 C87 68 76 88 52 90 C28 91 10 72 12 48 C14 28 26 19 46 14 Z" fill="url(#tex)" opacity="0.5"/><ellipse cx="46" cy="42" rx="5.5" ry="7.0" fill="#fff" stroke="#333" stroke-width="2.2"/><circle cx="47" cy="43" r="2.475" fill="#222"/><circle cx="48.4" cy="41" r="0.88" fill="#fff"/><path d="M42 60 q6 5 12 0" stroke="#333" stroke-width="2.2" fill="none" stroke-linecap="round"/></svg>