<svg xmlns="http://www.w3.org/2000/svg" viewBox="0 0 100 104" width="92" height="95" role="img" aria-label="transcripts agent"><defs><pattern id="tex" width="4" height="4" patternUnits="userSpaceOnUse"><path d="M0 0 L4 4" stroke="#00000010" stroke-width="1"/></pattern></defs><path d="M50 12 C74 8 90 30 86 52 C83 72 70 90 48 88 C26 86 12 70 14 48 C16 26 30 15 50 12 Z" fill="#8ecae6" stroke="#333" stroke-width="3"/><path d="M50 12 C74 8 90 30 86 52 C83 72 70 90 48 88 C26 86 12 70 14 48 C16 26 30 15 50 12 Z" fill="url(#tex)" opacity="0.5"/><path d="M14 34 C4 20 12 8 22 14 C28 18 26 30 20 36 Z" fill="#8ecae6" stroke="#333" stroke-width="2.4"/><path d="M86 34 C96 20 88 8 78 14 C72 18 74 30 80 36 Z" fill="#8ecae6" stroke="#333" stroke-width="2.4"/><rect x="66" y="58" width="18" height="24" rx="4" fill="#fff" stroke="#333" stroke-width="2"/><line x1="70" y1="65" x2="80" y2="65" stroke="#999" stroke-width="1.6"/><line x1="70" y1="70" x2="80" y2="70" stroke="#999" stroke-width="1.6"/><line x1="70" y1="75" x2="77" y2="75" stroke="#999" stroke-width="1.6"/><ellipse cx="38" cy="42" rx="5.5" ry="7.0" fill="#fff" stroke="#333" stroke-width="2.2"/><circle cx="39" cy="43" r="2.475" fill="#222"/><circle cx="40.4" cy="41" r="0.88" fill="#fff"/><ellipse cx="56" cy="42" rx="5.5" ry="7.0" fill="#fff" stroke="#333" stroke-width="2.2"/><circle cx="57" cy="43" r="2.475" fill="#222"/><circle cx="58.4" cy="41" r="0.88" fill="#fff"/><path d="M40 62 q8 8 18 1" stroke="#333" stroke-width="2.6" fill="none" stroke-linecap="round"/></svg>