<svg xmlns="http://www.w3.org/2000/svg" viewBox="0 0 100 104" width="92" height="95" role="img" aria-label="visual agent"><defs><pattern id="tex" width="4" height="4" patternUnits="userSpaceOnUse"><path d="M0 0 L4 4" stroke="#00000010" stroke-width="1"/></pattern></defs><path d="M50 10 C68 10 84 22 88 44 C92 68 74 90 50 90 C28 90 12 74 12 50 C12 28 30 10 50 10 Z" fill="#f7a8c4" stroke="#333" stroke-width="3"/><path d="M50 10 C68 10 84 22 88 44 C92 68 74 90 50 90 C28 90 12 74 12 50 C12 28 30 10 50 10 Z" fill="url(#tex)" opacity="0.5"/><path d="M30 14 c2 8 8 8 8 14 a4 4 0 0 1-8 0 c0-6 -2-8 0-14 Z" fill="#d81159"/><path d="M62 10 c2 6 6 7 6 12 a3.4 3.4 0 0 1-7 0 c0-5-1-6 1-12 Z" fill="#7ae582"/><path d="M64 80 l12-14" stroke="#8a5a44" stroke-width="4" stroke-linecap="round"/><path d="M76 66 c2-6 8-8 12-6 c-2 5-5 9-9 9 Z" fill="#d81159" stroke="#333" stroke-width="2"/><ellipse cx="38" cy="42" rx="5.5" ry="7.0" fill="#fff" stroke="#333" stroke-width="2.2"/><circle cx="39" cy="43" r="2.475" fill="#222"/><circle cx="40.4" cy="41" r="0.88" fill="#fff"/><ellipse cx="56" cy="42" rx="5.5" ry="7.0" fill="#fff" stroke="#333" stroke-width="2.2"/><circle cx="57" cy="43" r="2.475" fill="#222"/><circle cx="58.4" cy="41" r="0.88" fill="#fff"/><path d="M40 62 q8 8 18 1" stroke="#333" stroke-width="2.6" fill="none" stroke-linecap="round"/></svg>